<?xml version="1.0" standalone="no"?>
<!DOCTYPE svg PUBLIC "-//W3C//DTD SVG 20010904//EN"
 "http://www.w3.org/TR/2001/REC-SVG-20010904/DTD/svg10.dtd">
<svg version="1.0" xmlns="http://www.w3.org/2000/svg"
 width="1000.000000pt" height="1000.000000pt" viewBox="0 0 1000.000000 1000.000000"
 preserveAspectRatio="xMidYMid meet">
<metadata>
Created by potrace 1.14, written by Peter Selinger 2001-2017
</metadata>
<g transform="translate(0.000000,1000.000000) scale(0.100000,-0.100000)"
fill="#000000" stroke="none">
<path d="M0 5000 l0 -5000 5000 0 5000 0 0 5000 0 5000 -5000 0 -5000 0 0
-5000z m9036 4396 c65 -17 161 -68 214 -113 58 -50 126 -149 156 -229 32 -84
43 -237 24 -327 -19 -96 -84 -212 -159 -286 -103 -103 -218 -151 -361 -151
-91 0 -158 17 -238 60 -119 63 -209 167 -258 296 -32 84 -43 237 -24 327 40
194 203 371 387 422 64 18 195 18 259 1z m-7641 -2441 c141 -37 254 -96 346
-182 l50 -47 -57 -57 -57 -58 -49 44 c-61 55 -130 94 -228 131 -67 25 -88 28
-205 28 -111 1 -140 -2 -197 -22 -176 -61 -309 -197 -375 -384 -38 -106 -44
-280 -14 -398 51 -201 200 -367 389 -432 95 -33 288 -32 377 0 77 29 156 81
218 146 60 63 133 208 145 289 l9 57 -259 0 -258 0 0 75 0 75 345 0 345 0 0
-75 c0 -450 -383 -799 -818 -745 -184 23 -327 93 -458 224 -122 122 -197 268
-223 433 -66 425 198 815 614 907 85 19 270 14 360 -9z m2688 -2235 c58 -51
55 -129 -8 -178 -52 -41 -139 -19 -168 44 -21 43 -21 57 -1 100 33 69 119 85
177 34z m-2663 -767 l297 -763 -92 0 -92 0 -90 238 -90 237 -343 0 -343 0 -90
-237 -90 -238 -88 0 c-88 0 -88 0 -80 23 12 32 429 1088 519 1315 l76 193 104
-3 104 -3 298 -762z m4250 472 l0 -165 155 0 155 0 0 -65 0 -64 -152 -3 -153
-3 0 -355 c0 -268 3 -363 13 -386 30 -71 137 -90 275 -48 15 5 17 -3 17 -66 0
-68 -1 -71 -27 -82 -16 -6 -80 -12 -143 -12 -105 -1 -120 1 -172 26 -64 30
-101 76 -117 148 -6 26 -11 199 -11 413 l0 367 -110 0 -110 0 0 65 0 65 110 0
109 0 3 147 3 148 70 17 c39 9 73 17 78 17 4 1 7 -73 7 -164z m3160 0 l0 -165
155 0 155 0 0 -65 0 -65 -155 0 -155 0 0 -347 c0 -214 4 -363 11 -386 22 -82
125 -104 277 -61 23 6 23 6 20 -67 l-3 -74 -50 -12 c-27 -6 -85 -12 -127 -12
-128 -2 -217 40 -261 122 -22 41 -22 50 -25 440 l-3 397 -109 0 -110 0 0 65 0
65 110 0 110 0 0 148 0 148 68 16 c37 8 73 16 80 17 9 1 12 -38 12 -164z
m-6415 -170 c60 -16 182 -71 219 -98 19 -14 18 -16 -19 -68 -21 -30 -40 -55
-41 -57 -1 -2 -23 11 -50 28 -83 52 -149 72 -261 78 -97 4 -106 3 -159 -23
-68 -33 -94 -71 -94 -137 0 -103 33 -127 225 -163 272 -51 357 -89 412 -182
24 -42 28 -58 28 -128 0 -97 -27 -157 -100 -224 -133 -122 -373 -147 -579 -60
-69 28 -166 91 -166 107 0 4 20 29 43 56 l43 48 63 -40 c103 -67 161 -85 271
-86 114 -1 158 12 217 67 92 85 75 206 -36 251 -22 8 -104 27 -183 42 -233 43
-314 82 -360 173 -36 70 -39 172 -7 241 74 163 297 236 534 175z m1010 -1 c58
-15 137 -51 202 -91 l33 -20 -40 -56 -40 -56 -48 29 c-76 48 -158 73 -255 78
-110 6 -167 -9 -217 -57 -70 -66 -61 -179 17 -224 18 -10 106 -32 195 -49 251
-47 331 -84 383 -179 24 -45 29 -66 30 -124 1 -237 -263 -385 -570 -320 -80
17 -195 70 -244 112 -38 33 -39 31 21 102 l28 32 72 -44 c90 -56 152 -77 243
-84 120 -9 229 34 276 111 23 37 25 106 4 146 -29 56 -68 70 -328 120 -235 45
-319 120 -320 285 0 50 6 84 20 117 41 90 148 167 265 187 67 12 195 5 273
-15z m1493 -6 c67 -20 160 -63 197 -91 19 -15 19 -16 -19 -71 -39 -56 -39 -56
-64 -40 -97 64 -194 94 -301 94 -93 0 -141 -12 -182 -47 -82 -69 -76 -193 11
-238 17 -9 110 -31 205 -50 201 -39 277 -68 334 -130 50 -54 64 -99 59 -188
-5 -86 -26 -136 -84 -194 -141 -141 -406 -164 -629 -54 -44 22 -91 51 -104 65
-26 28 -25 31 33 100 l24 29 73 -47 c85 -54 146 -75 244 -83 161 -13 295 71
295 184 0 102 -53 139 -249 174 -210 37 -285 63 -344 118 -51 46 -71 98 -71
181 -1 127 56 215 179 275 99 48 262 54 393 13z m1879 7 c70 -21 142 -72 180
-129 61 -89 63 -108 63 -543 l0 -393 -80 0 -80 0 0 55 c0 30 -3 55 -6 55 -4 0
-22 -14 -42 -31 -79 -70 -199 -105 -327 -96 -102 7 -182 38 -246 95 -67 60
-91 110 -97 199 -11 163 63 268 229 323 55 19 81 21 189 18 120 -4 179 -17
283 -62 16 -7 17 0 17 94 0 122 -12 167 -57 219 -85 100 -303 107 -483 16 -29
-14 -53 -25 -55 -23 -8 9 -55 109 -55 117 0 20 177 81 310 105 46 8 204 -3
257 -19z m1209 0 c67 -22 139 -77 181 -138 61 -90 63 -109 63 -539 l0 -388
-80 0 -80 0 0 360 c0 341 -1 362 -21 416 -24 63 -75 120 -134 149 -31 16 -60
20 -130 20 -78 0 -97 -4 -140 -27 -28 -14 -70 -47 -93 -72 l-42 -46 0 -400 0
-400 -80 0 -80 0 -2 410 c-2 226 -3 465 -3 533 l0 122 83 3 82 3 0 -80 0 -80
46 49 c111 119 270 157 430 105z m-3916 -530 l0 -535 -80 0 -80 0 0 535 0 535
80 0 80 0 0 -535z"/>
<path d="M866 4190 c-76 -204 -137 -373 -134 -375 3 -3 131 -4 285 -3 l280 3
-141 372 c-78 205 -143 373 -146 373 -3 0 -68 -167 -144 -370z"/>
<path d="M6480 3685 c-104 -30 -170 -102 -170 -186 0 -42 29 -107 61 -136 100
-92 307 -90 449 5 l55 37 3 111 3 111 -38 17 c-107 48 -272 66 -363 41z"/>
</g>
</svg>
